<?xml version="1.0" encoding="UTF-8"?>
<svg version="1.1" viewBox="0 0 2000 2000" width="500" height="500" xmlns="http://www.w3.org/2000/svg">
<path transform="translate(1035,791)" d="m0 0h31l14 3 16 6 13 7 4 3-1 7-16 32-6 13-1 5h65l9 1 1 84 4-1h42l2 1 1 13v22l7-6 14-14 15-10 16-7 20-4 10-1h10l21 2 17 4 17 8 13 10 3 2 1-19 77-1 2 2v223l-1 3h-76l-1-9v-15l-5 3-13 11-10 6-16 7-18 3-18 1-25-3-20-8-12-7-11-9-10-9-6-7h-1l6 24-1 5-4 3-17 7-19 3-11 1h-9l-21-3-12-5-10-6-9-8-9-14-5-11-4-15-1-11-1-62-1-39-45-1-1 167-4 1h-73l-2-6v-162h-26v167l-2 1h-75l-1-1-1-178-4 5-9 16-15 28-17 32-14 26-12 22-13 25-13 23-3 2h-50l-5-8-17-38-18-41-11-25-2-3h-2l-9 21-9 20-11 24-11 26-10 22-2 2h-52l-6-9-10-20-12-22-14-26-17-32-7-12-7-14-12-22-14-27v-3l-4 1-11 20-27-9-14-3h-22l-10 5-3 5 2 8 8 7 12 5 24 7 18 8 15 9 12 11 6 9 5 12 3 16v10l-3 20-5 12-7 11-12 11-15 8-20 7-13 2-23 2h-19l-23-3-21-7-14-6-12-8-6-5-1-4 7-13 8-13 14-23 5 1 14 9 16 7 14 5 5 1h11l12-6 4-5 1-7-4-7-10-7-18-7-10-4-21-11-14-11-9-9-6-10-4-15v-20l3-14 4-9 6-9 8-9 15-10 15-6 17-4 14-2h32l26 4 5 1 85 1 4 4 13 29 11 25 11 24 15 33 3 6v2h2l3-9 8-20 7-15 18-40 13-30 4-8 6-1h40l8 1 5 8 11 26 10 23 20 45 8 17h2l7-15 9-20 12-27 7-15 12-26 8-16 3-1h167l1-46 2-23 3-19 5-16 8-16 7-11 13-13 14-9 13-5zm20 70-8 4-6 9-1 4-1 13v53l1 7 5 1h40l1-1 1-83-1-3-7-3-6-1zm109 150-1 21v57l2 12 5 10 5 4 4 1h8l9-3 1-5-5-17-2-13v-25l4-20 6-19v-3zm157 0-16 4-10 5-10 9-7 11-5 12-1 5v18l5 15 6 10 6 7 10 7 11 4 6 1h20l13-4 10-6 9-9 8-14 3-11v-20l-5-15-7-11-10-9-13-6-13-3z" fill="#023362"/>
<path transform="translate(1469,797)" d="m0 0h76l2 2v171l15-10 15-8 13-4 11-2 11-1h18l16 2 15 4 16 8 13 9 10 9 11 14 7 11 8 16 5 17 2 18v25l-2 17-4 16-12 23-10 13-9 10-11 9-11 7-20 9-18 3-9 1h-15l-20-3-12-5-14-7-14-11-6-5-1 4-1 19-1 1h-74l-1-2-1-15v-362zm125 214-14 3-10 4-10 8-7 7-6 12-3 12v17l4 15 5 9 8 9 10 7 11 4 5 1h20l11-3 10-5 12-11 6-10 3-10 1-5v-21l-4-13-6-9-7-8-11-7-11-4-9-2z" fill="#023462"/>
<path transform="translate(1334,524)" d="m0 0h118v4l-5 6-8 7-104 104h-2v2l-8 7-11 11-6 7-8 7-18 18-6 7-7 6-5 6-8 7-39 39-5 6-8 7-17 17h-5l-20-18-4-4v-2l-4-2-7-8-10-10-3-2v-2l-4-2-8-8-1-3 7-8 124-124h2l2-4 8-8h2v-2h2v-2h2l2-4h2l1-3 5-5h2l2-4 38-38 6-4z" fill="#023362"/>
<path transform="translate(1334,715)" d="m0 0h115l4 2-101 101-4 5-4 4 20 20 7 8 43 43 2 1v2l4 2 10 10 7 8 13 13 2 4-1 1h-122l-5-3-64-64-8-7-34-34-2-3 1-5 64-64h2l2-4 23-23 5-4 7-8 6-4z" fill="#023362"/>
<path transform="translate(1342,828)" d="m0 0 4 1 18 18 7 8 43 43 2 1v2l4 2 10 10 7 8 13 13 2 4-1 1h-122l-5-3-44-44 2-5 33-33 8-7z" fill="#023362"/>
<path transform="translate(882,796)" d="m0 0h19l10 2 14 7 10 9 8 13 4 13v19l-4 11-8 13-4 5-11 9-12 5-3 1h-19l-13-4-10-5-11-10-7-11-4-10-1-4v-20l3-11 7-12 10-10 14-8z" fill="#017B7B"/>
<path transform="translate(1276,764)" d="m0 0 9 6 15 15 6 5 8 8v2l4 2v2l4 2v2l4 2 14 14 4 2v2l-8 7-19 19-8 7-30 30-19-19-8-7-34-34-2-3 1-5 21-21z" fill="#017B7B"/>
<path transform="translate(1334,524)" d="m0 0h118v1l-7 1-28 1h-74l-10-1z" fill="#057E7E"/>
</svg>
